<svg width="24" height="24" viewBox="0 0 24 24" fill="none" xmlns="http://www.w3.org/2000/svg">
<path d="M18.3 18.6532L18.6953 19.0485L19.8172 20.1704C19.864 20.214 19.9258 20.2381 19.9899 20.2376C20.0554 20.237 20.1181 20.2107 20.1645 20.1643C20.2108 20.118 20.2371 20.0553 20.2377 19.9897C20.2383 19.9256 20.2141 19.8638 20.1705 19.817L19.0494 18.6949L18.6548 18.3L18.92 17.8086C19.1187 17.4404 19.2308 17.0317 19.2477 16.6137C19.2647 16.1956 19.186 15.7792 19.0177 15.3962C18.8493 15.0131 18.5958 14.6735 18.2765 14.4032C17.9571 14.1329 17.5802 13.9391 17.1746 13.8365C16.769 13.7338 16.3453 13.7251 15.9358 13.8109C15.5263 13.8968 15.1418 14.0749 14.8115 14.3318C14.4813 14.5887 14.214 14.9176 14.03 15.2934C13.8461 15.6691 13.7503 16.0819 13.75 16.5002L18.3 18.6532ZM18.3 18.6532L17.8082 18.9191M18.3 18.6532L17.8082 18.9191M17.8082 18.9191C17.3893 19.1457 16.9187 19.2596 16.4425 19.2496C15.9664 19.2397 15.501 19.1063 15.0919 18.8624C14.6828 18.6185 14.344 18.2726 14.1088 17.8584C13.8737 17.4445 13.75 16.9765 13.75 16.5004L17.8082 18.9191Z" stroke="white" stroke-width="1.5"/>
<path d="M3.77144 5.39486L3.77145 5.39486L3.77162 5.39271C3.79274 5.12829 3.83785 4.90638 3.94053 4.70395C4.10828 4.37486 4.37586 4.10728 4.70495 3.93953C4.90735 3.83687 5.12918 3.79177 5.39239 3.77065C5.64862 3.75049 5.9667 3.75 6.364 3.75H7.636C8.03619 3.75 8.35166 3.75055 8.60414 3.77145L8.60629 3.77162C8.87064 3.79273 9.09249 3.83783 9.29488 3.94045C9.62376 4.10839 9.89109 4.37608 10.0586 4.70519L10.0591 4.70615C10.1621 4.90775 10.2073 5.12885 10.2295 5.39364C10.2495 5.64966 10.25 5.96638 10.25 6.363V7.636C10.25 8.03619 10.2495 8.35166 10.2286 8.60414L10.2276 8.61524L10.227 8.62635C10.2147 8.86053 10.1562 9.08994 10.0552 9.30148C9.88836 9.62509 9.62477 9.88862 9.30112 10.0554C9.08974 10.1567 8.86045 10.2154 8.62633 10.2281L8.61721 10.2286L8.60811 10.2293C8.35178 10.2495 8.03452 10.25 7.637 10.25H6.363C5.96281 10.25 5.64734 10.2495 5.39486 10.2286L5.38376 10.2276L5.37265 10.227C5.1384 10.2146 4.90892 10.1562 4.69732 10.0551C4.37365 9.88854 4.10996 9.62521 3.94298 9.30177C3.8424 9.09041 3.78428 8.86134 3.77196 8.62753L3.77145 8.61781L3.77068 8.60811C3.75049 8.35178 3.75 8.03452 3.75 7.637V6.363C3.75 5.96281 3.75055 5.64734 3.77144 5.39486Z" stroke="white" stroke-width="1.5"/>
<path d="M3.77144 15.3949L3.77145 15.3949L3.77162 15.3927C3.79274 15.1283 3.83785 14.9064 3.94053 14.704C4.10828 14.3749 4.37586 14.1073 4.70495 13.9395C4.90735 13.8369 5.12918 13.7918 5.39239 13.7706C5.64862 13.7505 5.9667 13.75 6.364 13.75H7.636C8.03619 13.75 8.35166 13.7505 8.60414 13.7714L8.60629 13.7716C8.87064 13.7927 9.09249 13.8378 9.29488 13.9404C9.62376 14.1084 9.89109 14.3761 10.0586 14.7052L10.0591 14.7062C10.1621 14.9078 10.2073 15.1289 10.2295 15.3936C10.2495 15.6497 10.25 15.9664 10.25 16.363V17.636C10.25 18.0362 10.2495 18.3517 10.2286 18.6041L10.2276 18.6152L10.227 18.6264C10.2147 18.8605 10.1562 19.0899 10.0552 19.3015C9.88836 19.6251 9.62477 19.8886 9.30112 20.0554C9.08974 20.1567 8.86045 20.2154 8.62633 20.2281L8.61721 20.2286L8.60811 20.2293C8.35178 20.2495 8.03452 20.25 7.637 20.25H6.363C5.96281 20.25 5.64734 20.2495 5.39486 20.2286L5.38376 20.2276L5.37265 20.227C5.1384 20.2146 4.90892 20.1562 4.69732 20.0551C4.37365 19.8885 4.10996 19.6252 3.94298 19.3018C3.8424 19.0904 3.78428 18.8613 3.77196 18.6275L3.77145 18.6178L3.77068 18.6081C3.75049 18.3518 3.75 18.0345 3.75 17.637V16.363C3.75 15.9628 3.75055 15.6473 3.77144 15.3949Z" stroke="white" stroke-width="1.5"/>
<path d="M13.7714 5.39486L13.7714 5.39486L13.7716 5.39271C13.7927 5.12829 13.8379 4.90638 13.9405 4.70395C14.1083 4.37486 14.3759 4.10728 14.705 3.93953C14.9073 3.83687 15.1292 3.79177 15.3924 3.77065C15.6486 3.75049 15.9667 3.75 16.364 3.75H17.636C18.0362 3.75 18.3517 3.75055 18.6041 3.77145L18.6063 3.77162C18.8706 3.79273 19.0925 3.83783 19.2949 3.94045C19.6238 4.10839 19.8911 4.37608 20.0586 4.70519L20.0591 4.70615C20.1621 4.90775 20.2073 5.12885 20.2295 5.39364C20.2495 5.64966 20.25 5.96638 20.25 6.363V7.636C20.25 8.03619 20.2495 8.35166 20.2286 8.60414L20.2276 8.61524L20.227 8.62635C20.2147 8.86053 20.1562 9.08994 20.0552 9.30148C19.8884 9.62509 19.6248 9.88862 19.3011 10.0554C19.0897 10.1567 18.8604 10.2154 18.6263 10.2281L18.6172 10.2286L18.6081 10.2293C18.3518 10.2495 18.0345 10.25 17.637 10.25H16.363C15.9628 10.25 15.6473 10.2495 15.3949 10.2286L15.3838 10.2276L15.3726 10.227C15.1384 10.2146 14.9089 10.1562 14.6973 10.0551C14.3736 9.88854 14.11 9.62521 13.943 9.30177C13.8424 9.09041 13.7843 8.86134 13.772 8.62753L13.7714 8.61781L13.7707 8.60811C13.7505 8.35178 13.75 8.03452 13.75 7.637V6.363C13.75 5.96281 13.7505 5.64734 13.7714 5.39486Z" stroke="white" stroke-width="1.5"/>
</svg>
