<svg width="24" height="24" viewBox="0 0 24 24" fill="none" xmlns="http://www.w3.org/2000/svg">
<mask id="mask0_114_12015" style="mask-type:luminance" maskUnits="userSpaceOnUse" x="1" y="2" width="21" height="20">
<path d="M1.99917 2H21.1992V21.2001H1.99917V2Z" fill="white"/>
<path d="M10.6626 11.6001C10.6626 12.1179 11.0823 12.5376 11.6001 12.5376C12.1179 12.5376 12.5376 12.1179 12.5376 11.6001C12.5376 11.0823 12.1179 10.6626 11.6001 10.6626C11.0823 10.6626 10.6626 11.0823 10.6626 11.6001Z" fill="white"/>
<path d="M6.9126 11.6001C6.9126 12.1179 7.33234 12.5376 7.8501 12.5376C8.36786 12.5376 8.7876 12.1179 8.7876 11.6001C8.7876 11.0823 8.36786 10.6626 7.8501 10.6626C7.33234 10.6626 6.9126 11.0823 6.9126 11.6001Z" fill="white"/>
<path d="M14.4126 11.6001C14.4126 12.1179 14.8323 12.5376 15.3501 12.5376C15.8679 12.5376 16.2876 12.1179 16.2876 11.6001C16.2876 11.0823 15.8679 10.6626 15.3501 10.6626C14.8323 10.6626 14.4126 11.0823 14.4126 11.6001Z" fill="white"/>
</mask>
<g mask="url(#mask0_114_12015)">
<mask id="mask1_114_12015" style="mask-type:luminance" maskUnits="userSpaceOnUse" x="1" y="2" width="21" height="20">
<path d="M21.1992 1.99996H1.99923V21.2H21.1992V1.99996Z" fill="white"/>
</mask>
<g mask="url(#mask1_114_12015)">
<path d="M11.5992 2.74996C16.4869 2.74996 20.4492 6.71224 20.4492 11.6C20.4492 13.3206 19.9576 14.9263 19.108 16.2851L20.4492 20.45L16.2844 19.1087C14.9255 19.9584 13.3199 20.45 11.5992 20.45C6.71151 20.45 2.74923 16.4877 2.74923 11.6C2.74923 6.71224 6.71151 2.74996 11.5992 2.74996Z" stroke="white" stroke-width="1.5" stroke-miterlimit="10" stroke-linecap="round" stroke-linejoin="round"/>
<path d="M11.6001 12.0374C11.3585 12.0374 11.1626 11.8415 11.1626 11.5999C11.1626 11.3582 11.3585 11.1624 11.6001 11.1624C11.8417 11.1624 12.0376 11.3582 12.0376 11.5999C12.0376 11.8415 11.8417 12.0374 11.6001 12.0374Z" fill="white" stroke="white"/>
<path d="M7.8501 12.0374C7.60848 12.0374 7.4126 11.8415 7.4126 11.5999C7.4126 11.3582 7.60848 11.1624 7.8501 11.1624C8.09172 11.1624 8.2876 11.3582 8.2876 11.5999C8.2876 11.8415 8.09172 12.0374 7.8501 12.0374Z" fill="white" stroke="white"/>
<path d="M15.3501 12.375C15.1085 12.375 14.9126 12.1791 14.9126 11.9375C14.9126 11.6959 15.1085 11.5 15.3501 11.5C15.5917 11.5 15.7876 11.6959 15.7876 11.9375C15.7876 12.1791 15.5917 12.375 15.3501 12.375Z" fill="white" stroke="white"/>
</g>
</g>
</svg>
