<svg width="24" height="24" viewBox="0 0 24 24" fill="none" xmlns="http://www.w3.org/2000/svg">
<path d="M11.9998 22.2001C17.6234 22.2001 22.1998 17.6236 22.1998 12C22.1998 6.37646 17.6235 1.80005 11.9998 1.80005C6.37616 1.80005 1.7998 6.37646 1.7998 12C1.7998 17.6236 6.37621 22.2001 11.9998 22.2001ZM11.9998 3.16003C16.8754 3.16003 20.8398 7.12441 20.8398 12C20.8398 16.8757 16.8754 20.8401 11.9998 20.8401C7.12417 20.8401 3.15978 16.8757 3.15978 12C3.15978 7.12441 7.12423 3.16003 11.9998 3.16003Z" fill="white" stroke="white" stroke-width="0.5"/>
<path d="M14.9748 15.2505C15.1006 15.3525 15.2502 15.4001 15.3998 15.4001C15.5017 15.4003 15.6024 15.3775 15.6942 15.3334C15.786 15.2892 15.8667 15.2249 15.9302 15.1451C16.1648 14.8527 16.1172 14.4243 15.8248 14.1897L12.6798 11.6737V6.56012C12.6798 6.18611 12.3738 5.88013 11.9998 5.88013C11.6258 5.88013 11.3198 6.18611 11.3198 6.56012V12.0001C11.3198 12.2076 11.415 12.4013 11.5748 12.5305L14.9748 15.2505Z" fill="white" stroke="white" stroke-width="0.3"/>
</svg>
