<svg width="32" height="32" viewBox="0 0 32 32" fill="none" xmlns="http://www.w3.org/2000/svg">
<path d="M26.4298 7.62004C27.2543 9.21504 27.5998 11.015 27.0548 12.76C26.8098 13.545 26.4098 14.275 25.9193 14.93C25.3143 15.755 24.5143 16.41 23.9343 17.25C22.8243 18.845 23.1593 20.83 22.9743 22.655C22.7843 24.595 22.2243 26.855 20.5793 28.095C20.4038 28.23 20.1938 28.375 19.9593 28.375H19.9393C19.6843 28.34 19.4743 28.135 19.3143 27.95C18.7993 27.365 18.4898 26.57 18.2993 25.825C18.0798 24.955 18.0548 24.055 17.8943 23.175C17.7293 22.22 17.4793 21.285 17.2193 20.35C16.8788 19.15 15.1193 19.145 14.7788 20.35C14.5393 21.23 14.2843 22.11 14.1288 23.015C13.9738 23.93 13.9338 24.87 13.7088 25.775C13.5288 26.515 13.2288 27.27 12.7488 27.87C12.5738 28.09 12.3138 28.38 12.0038 28.375H11.9638C11.3288 28.26 10.7643 27.51 10.4238 27.025C9.75877 26.075 9.40377 24.955 9.18427 23.825C8.80927 21.91 9.27877 19.74 8.45927 17.93C8.06427 17.06 7.34927 16.375 6.70927 15.685C6.03927 14.95 5.45927 14.13 5.09927 13.195C4.39427 11.385 4.64427 9.51004 5.47927 7.79504C6.27927 6.15504 7.63927 4.58004 9.38927 3.94004C13.0088 2.61504 17.0288 5.43504 19.5193 7.81004C19.9793 8.26004 20.6793 7.54504 20.2193 7.09504C19.2393 6.14987 18.1613 5.31181 17.0038 4.59504C18.6338 3.82504 20.4838 3.30504 22.2738 3.83004C24.1298 4.37504 25.5648 5.94504 26.4298 7.62004ZM12.6248 6.85504C13.2398 7.05004 13.5448 6.10004 12.9348 5.90004C11.5398 5.47004 10.1398 5.51504 8.97977 6.47004C7.83977 7.40504 6.95977 8.87504 6.72477 10.335C6.61977 10.975 7.60477 11.135 7.70977 10.495C7.91477 9.25004 8.69477 7.95504 9.69477 7.17504C10.5698 6.50004 11.6048 6.53504 12.6248 6.85504Z" fill="url(#paint0_linear_114_12039)"/>
<defs>
<linearGradient id="paint0_linear_114_12039" x1="27.3182" y1="28.3751" x2="-2.87295" y2="26.2411" gradientUnits="userSpaceOnUse">
<stop stop-color="#92A3FD"/>
<stop offset="1" stop-color="#9DCEFF"/>
</linearGradient>
</defs>
</svg>
