<svg width="32" height="32" viewBox="0 0 32 32" fill="none" xmlns="http://www.w3.org/2000/svg">
<g clip-path="url(#clip0_114_12036)">
<path d="M26.1693 11.336C25.9624 11.9701 25.6078 12.5459 25.1346 13.016C24.6615 13.4862 24.0834 13.8371 23.448 14.04C22.5323 14.3424 21.5417 14.3296 20.6341 14.0036C19.7265 13.6776 18.9541 13.0572 18.44 12.2413C18.4049 12.1805 18.3864 12.1115 18.3864 12.0413C18.3864 11.9711 18.4049 11.9021 18.44 11.8413C19.2527 10.3816 19.5354 8.68571 19.24 7.04133C19.2267 6.97338 19.2312 6.90312 19.2532 6.83745C19.2752 6.77177 19.3138 6.71293 19.3653 6.66667C20.1233 6.02247 21.0853 5.66812 22.08 5.66667C22.7624 5.66721 23.4349 5.82971 24.0423 6.1408C24.6496 6.45189 25.1745 6.90269 25.5737 7.45613C25.9729 8.00958 26.2351 8.64987 26.3386 9.32436C26.4422 9.99885 26.3841 10.6883 26.1693 11.336ZM24.1467 16.04H21.5067C21.4006 16.04 21.2988 16.0821 21.2238 16.1572C21.1488 16.2322 21.1067 16.3339 21.1067 16.44C21.1052 16.4926 21.1151 16.5449 21.1358 16.5932C21.1566 16.6416 21.1876 16.6848 21.2267 16.72L21.2667 16.76C22.1631 17.6739 22.8669 18.7585 23.3365 19.9495C23.806 21.1404 24.0316 22.4135 24 23.6933C24.0063 24.1667 23.9706 24.6396 23.8933 25.1067C23.8813 25.1596 23.8754 25.2137 23.876 25.268C23.8749 25.32 23.8842 25.3718 23.9034 25.4202C23.9225 25.4686 23.9511 25.5127 23.9875 25.5499C24.0238 25.5871 24.0673 25.6168 24.1152 25.637C24.1631 25.6573 24.2146 25.6678 24.2667 25.668H26.2133C26.7229 25.7289 27.2397 25.6738 27.725 25.5068C28.2103 25.3398 28.6516 25.0652 29.0158 24.7035C29.3799 24.3419 29.6576 23.9026 29.8281 23.4185C29.9985 22.9344 30.0573 22.418 30 21.908C30.0532 21.1249 29.9383 20.3396 29.6632 19.6045C29.388 18.8694 28.9589 18.2017 28.4047 17.646C27.8504 17.0903 27.1837 16.6596 26.4493 16.3826C25.715 16.1056 24.9299 15.9888 24.1467 16.04ZM12.0133 3C10.9585 3 9.92735 3.31279 9.05029 3.89883C8.17323 4.48486 7.48964 5.31782 7.08598 6.29236C6.68231 7.26689 6.57669 8.33925 6.78248 9.37382C6.98827 10.4084 7.49622 11.3587 8.2421 12.1046C8.98798 12.8505 9.93829 13.3584 10.9729 13.5642C12.0074 13.77 13.0798 13.6644 14.0543 13.2607C15.0289 12.857 15.8618 12.1734 16.4478 11.2964C17.0339 10.4193 17.3467 9.38817 17.3467 8.33333C17.3467 6.91885 16.7848 5.56229 15.7846 4.5621C14.7844 3.5619 13.4278 3 12.0133 3ZM14.6667 16.3333H9.33333C3.92 16.3333 2 20.2933 2 23.6933C2 26.7333 3.61333 28.3333 6.66667 28.3333H17.3333C20.3867 28.3333 22 26.7333 22 23.6933C22 20.2933 20.08 16.3333 14.6667 16.3333Z" fill="url(#paint0_linear_114_12036)"/>
</g>
<defs>
<linearGradient id="paint0_linear_114_12036" x1="30.0213" y1="28.3333" x2="-7.27569" y2="25.141" gradientUnits="userSpaceOnUse">
<stop stop-color="#92A3FD"/>
<stop offset="1" stop-color="#9DCEFF"/>
</linearGradient>
<clipPath id="clip0_114_12036">
<rect width="28.0213" height="25.3333" fill="white" transform="translate(2 3)"/>
</clipPath>
</defs>
</svg>
