<svg width="32" height="32" viewBox="0 0 32 32" fill="none" xmlns="http://www.w3.org/2000/svg">
<path d="M22.3794 2.35001C20.0694 2.19692 17.7879 2.93001 15.9994 4.40001C14.1443 2.89387 11.7778 2.16499 9.39678 2.36636C7.01572 2.56773 4.80527 3.68371 3.22944 5.48001C1.69038 7.29571 0.897433 9.62766 1.01065 12.0052C1.12386 14.3827 2.13481 16.6288 3.83944 18.29L14.0994 28.54C14.6088 29.177 15.3492 29.5868 16.1594 29.68C16.3626 29.6773 16.5631 29.6334 16.7487 29.5509C16.9344 29.4684 17.1013 29.349 17.2394 29.2L28.1494 18.29C29.8576 16.6313 30.8719 14.3856 30.987 12.0073C31.1021 9.6291 30.3095 7.29594 28.7694 5.48001C27.9677 4.55757 26.9891 3.80528 25.8915 3.26766C24.794 2.73004 23.5997 2.41801 22.3794 2.35001ZM26.7394 16.88L15.9994 27.58C15.8059 27.4511 15.6281 27.3 15.4694 27.13L5.25944 16.88C3.91375 15.5777 3.11102 13.8143 3.0127 11.9442C2.91437 10.0742 3.52773 8.23622 4.72944 6.80001C5.35797 6.07875 6.12375 5.48979 6.98218 5.06745C7.8406 4.6451 8.77449 4.39782 9.72944 4.34001H10.1794C11.9576 4.33032 13.6758 4.98265 14.9994 6.17001C15.2754 6.41395 15.6311 6.5486 15.9994 6.5486C16.3678 6.5486 16.7234 6.41395 16.9994 6.17001C17.7074 5.52891 18.5369 5.03656 19.4387 4.7222C20.3406 4.40784 21.2964 4.27787 22.2494 4.34001C23.2044 4.39782 24.1383 4.6451 24.9967 5.06745C25.8551 5.48979 26.6209 6.07875 27.2494 6.80001C28.4537 8.23377 29.0705 10.0703 28.9759 11.9403C28.8813 13.8103 28.0823 15.5751 26.7394 16.88Z" fill="white" stroke="white" stroke-width="0.3"/>
</svg>
