<svg width="32" height="32" viewBox="0 0 32 32" fill="none" xmlns="http://www.w3.org/2000/svg">
<path d="M13.6352 10.8815C14.0207 9.71992 14.1249 8.48341 13.9392 7.27372C12.646 7.53446 11.4438 8.12942 10.4521 8.99937C10.6285 9.61104 10.7158 10.2449 10.7114 10.8815H13.6352ZM5.53894 10.8815H9.81729C9.82663 10.3013 9.74364 9.72335 9.57141 9.16925C8.76224 6.61207 6.01729 5.22619 6.01729 5.22619C6.01729 5.22619 4.58671 7.95325 5.39588 10.4925C5.43691 10.6245 5.48466 10.7544 5.53894 10.8815ZM25.4286 10.8815L28.1869 7.47042C28.373 7.64619 28.6203 7.74247 28.8763 7.73881C29.1323 7.73515 29.3767 7.63185 29.5577 7.45084C29.7387 7.26983 29.842 7.02539 29.8457 6.76943C29.8493 6.51347 29.7531 6.26618 29.5773 6.08007L27.342 3.84478C27.2517 3.75289 27.1438 3.68018 27.0247 3.63102C26.9057 3.58185 26.7779 3.55724 26.6491 3.55866C26.5196 3.55715 26.3911 3.5817 26.2713 3.63085C26.1515 3.68001 26.0428 3.75276 25.9516 3.84478C25.8599 3.93579 25.787 4.04409 25.7373 4.1634C25.6876 4.28272 25.662 4.4107 25.662 4.53995C25.662 4.66921 25.6876 4.79719 25.7373 4.91651C25.787 5.03582 25.8599 5.14411 25.9516 5.23513L18.9418 10.8815H25.4286ZM28.5222 11.7711H3.48694C3.16725 11.8167 2.87472 11.9761 2.6631 12.22C2.45147 12.4639 2.33496 12.776 2.33496 13.0989C2.33496 13.4218 2.45147 13.7339 2.6631 13.9778C2.87472 14.2217 3.16725 14.3811 3.48694 14.4267H24.2305C24.349 14.4267 24.4627 14.4738 24.5466 14.5576C24.6304 14.6414 24.6775 14.7552 24.6775 14.8737C24.6775 14.9923 24.6304 15.106 24.5466 15.1898C24.4627 15.2737 24.349 15.3208 24.2305 15.3208H3.78647C3.95206 17.566 4.73253 19.7223 6.04234 21.5533C7.35216 23.3844 9.14076 24.8195 11.2121 25.7015V27.1768C11.2121 27.5159 11.3468 27.8411 11.5866 28.0809C11.8264 28.3207 12.1516 28.4554 12.4907 28.4554H19.5185C19.8576 28.4554 20.1828 28.3207 20.4226 28.0809C20.6624 27.8411 20.7971 27.5159 20.7971 27.1768V26.5956H13.8542C13.7357 26.5956 13.622 26.5485 13.5381 26.4647C13.4543 26.3808 13.4072 26.2671 13.4072 26.1485C13.4072 26.03 13.4543 25.9163 13.5381 25.8324C13.622 25.7486 13.7357 25.7015 13.8542 25.7015H20.7971C23.0088 24.7606 24.8949 23.19 26.2208 21.1853C27.5467 19.1806 28.2538 16.8302 28.254 14.4267H28.5222C28.8419 14.3811 29.1345 14.2217 29.3461 13.9778C29.5577 13.7339 29.6742 13.4218 29.6742 13.0989C29.6742 12.776 29.5577 12.4639 29.3461 12.22C29.1345 11.9761 28.8419 11.8167 28.5222 11.7711Z" fill="url(#paint0_linear_114_12058)"/>
<defs>
<linearGradient id="paint0_linear_114_12058" x1="29.8458" y1="28.4554" x2="-6.77228" y2="25.3243" gradientUnits="userSpaceOnUse">
<stop stop-color="#92A3FD"/>
<stop offset="1" stop-color="#9DCEFF"/>
</linearGradient>
</defs>
</svg>
