<svg width="24" height="24" viewBox="0 0 24 24" fill="none" xmlns="http://www.w3.org/2000/svg">
<path fill-rule="evenodd" clip-rule="evenodd" d="M12 21.2498C17.108 21.2498 21.25 17.1088 21.25 11.9998C21.25 6.89176 17.108 2.74976 12 2.74976C6.892 2.74976 2.75 6.89176 2.75 11.9998C2.75 17.1088 6.892 21.2498 12 21.2498Z" stroke="white" stroke-width="1.2" stroke-linecap="round" stroke-linejoin="round"/>
<path d="M12 12.5C11.7239 12.5 11.5 12.2761 11.5 12C11.5 11.7239 11.7239 11.5 12 11.5C12.2761 11.5 12.5 11.7239 12.5 12C12.5 12.2761 12.2761 12.5 12 12.5Z" fill="white" stroke="white"/>
<path d="M8 12.5C7.72386 12.5 7.5 12.2761 7.5 12C7.5 11.7239 7.72386 11.5 8 11.5C8.27614 11.5 8.5 11.7239 8.5 12C8.5 12.2761 8.27614 12.5 8 12.5Z" fill="white" stroke="white"/>
<path d="M16 12.5C15.7239 12.5 15.5 12.2761 15.5 12C15.5 11.7239 15.7239 11.5 16 11.5C16.2761 11.5 16.5 11.7239 16.5 12C16.5 12.2761 16.2761 12.5 16 12.5Z" fill="white" stroke="white"/>
</svg>
