<svg width="24" height="24" viewBox="0 0 24 24" fill="none" xmlns="http://www.w3.org/2000/svg">
<path fill-rule="evenodd" clip-rule="evenodd" d="M7.42416 19.8203C7.84616 19.8203 8.18916 20.1633 8.18916 20.5853C8.18916 21.0073 7.84616 21.3493 7.42416 21.3493C7.00216 21.3493 6.66016 21.0073 6.66016 20.5853C6.66016 20.1633 7.00216 19.8203 7.42416 19.8203Z" stroke="white" stroke-width="1.5" stroke-linecap="round" stroke-linejoin="round"/>
<path fill-rule="evenodd" clip-rule="evenodd" d="M18.6752 19.8203C19.0972 19.8203 19.4402 20.1633 19.4402 20.5853C19.4402 21.0073 19.0972 21.3493 18.6752 21.3493C18.2532 21.3493 17.9102 21.0073 17.9102 20.5853C17.9102 20.1633 18.2532 19.8203 18.6752 19.8203Z" stroke="white" stroke-width="1.5" stroke-linecap="round" stroke-linejoin="round"/>
<path d="M2.75 3.25L4.83 3.61L5.793 15.083C5.871 16.018 6.652 16.736 7.59 16.736H18.502C19.398 16.736 20.158 16.078 20.287 15.19L21.236 8.632C21.353 7.823 20.726 7.099 19.909 7.099H5.164" stroke="white" stroke-width="1.5" stroke-linecap="round" stroke-linejoin="round"/>
<path fill-rule="evenodd" clip-rule="evenodd" d="M15.4758 11.4722H13.5349V9.54473C13.5349 9.23112 13.2845 9 13.0036 9C12.7226 9 12.4722 9.23112 12.4722 9.54473V11.4722H10.5313C10.2504 11.4722 10 11.7034 10 12.017C10 12.3306 10.2504 12.5617 10.5313 12.5617H12.4722V14.4892C12.4722 14.8028 12.7226 15.0339 13.0036 15.0339C13.2845 15.0339 13.5349 14.8028 13.5349 14.4892V12.5617H15.4758C15.7567 12.5617 16.0071 12.3306 16.0071 12.017C16.0071 11.7034 15.7567 11.4722 15.4758 11.4722ZM10.3218 12.017C10.3218 12.017 10.3218 12.017 10.3218 12.017C10.3218 12.1327 10.4156 12.2265 10.5313 12.2265H12.794V14.4892C12.794 14.4892 12.794 14.4892 12.794 14.4892V12.2265H10.5313C10.4156 12.2265 10.3218 12.1327 10.3218 12.017Z" fill="white"/>
</svg>
