<svg width="24" height="24" viewBox="0 0 24 24" fill="none" xmlns="http://www.w3.org/2000/svg">
<path fill-rule="evenodd" clip-rule="evenodd" d="M15.7083 11.183H12.797V8.29171C12.797 7.82128 12.4214 7.47461 12 7.47461C11.5786 7.47461 11.203 7.82128 11.203 8.29171V11.183H8.29161C7.87021 11.183 7.49463 11.5296 7.49463 12.0001C7.49463 12.4705 7.87021 12.8172 8.29161 12.8172H11.203V15.7084C11.203 16.1788 11.5786 16.5255 12 16.5255C12.4214 16.5255 12.797 16.1788 12.797 15.7084V12.8172H15.7083C16.1297 12.8172 16.5053 12.4705 16.5053 12.0001C16.5053 11.5296 16.1297 11.183 15.7083 11.183ZM7.97734 12.0001C7.97734 12.0001 7.97734 12.0001 7.97734 12.0001C7.97734 12.1736 8.11804 12.3143 8.29161 12.3143H11.6857V15.7084C11.6857 15.7084 11.6857 15.7084 11.6857 15.7084V12.3143H8.29161C8.11804 12.3143 7.97734 12.1736 7.97734 12.0001Z" fill="white"/>
<path fill-rule="evenodd" clip-rule="evenodd" d="M12 2C17.5232 2 22 6.47784 22 12C22 17.5222 17.5232 22 12 22C6.47784 22 2 17.5222 2 12C2 6.47784 6.47784 2 12 2Z" stroke="white" stroke-width="1.5" stroke-linecap="round" stroke-linejoin="round"/>
</svg>
