<svg width="32" height="32" viewBox="0 0 32 32" fill="none" xmlns="http://www.w3.org/2000/svg">
<path d="M21.0845 10.7449C18.888 10.1015 17.4953 8.07832 17.0641 5.78793C16.8765 4.79523 16.8772 3.79572 17.029 2.78471C17.0647 2.55069 17.2743 2.3841 17.5106 2.40109L20.2045 2.60055C20.3731 2.61387 20.5221 2.71785 20.5892 2.87821C20.6804 3.09461 20.5759 3.16454 20.5291 3.65508C20.3422 5.26962 21.1937 6.87759 22.7918 6.87759C23.0592 6.87759 23.266 6.64017 23.2264 6.37441L23.2218 6.34381C23.1901 6.13529 23.015 5.97776 22.8042 5.97153C22.4246 5.95968 22.166 5.83667 21.9614 5.63647C21.6721 5.3532 21.8727 4.86107 22.2776 4.85926C24.8271 4.84793 24.0978 4.8507 24.2322 4.8507C25.8188 4.8507 27.1476 6.01799 27.3266 7.5706C27.6512 10.3834 23.8152 11.5351 21.0845 10.7449Z" fill="url(#paint0_linear_114_12049)"/>
<path d="M27.2011 25.1495C26.0768 26.4636 24.4177 26.8897 22.52 26.8903C17.2733 26.8903 9.95617 23.584 8.4128 27.0835C8.20597 27.5521 8.28814 28.18 8.65645 28.95C8.80033 29.2498 8.58081 29.5988 8.24734 29.5988C8.08074 29.5988 8.88368 29.611 5.7439 29.549C5.62752 29.5466 5.51652 29.4995 5.43394 29.4175C3.35373 27.3572 3.32636 24.2292 5.00697 22.1702C5.15544 21.9883 5.41898 21.9562 5.61351 22.0877C8.23833 23.8622 12.028 22.772 15.1894 21.9367C17.4899 21.3286 20.0971 20.6396 21.1318 21.2476C21.2581 21.3218 21.4077 21.4408 21.5318 21.7111C21.6225 21.9083 21.8435 22.0103 22.0537 21.9565C22.3251 21.8874 22.4708 21.5899 22.3563 21.3354C22.3537 21.3285 22.3228 21.2652 22.32 21.2595C20.536 17.6914 11.4776 23.6503 6.86591 21.7412C4.35035 20.6992 3.35883 17.5477 5.20139 15.1881C5.33472 15.0174 5.57322 14.9682 5.76475 15.0694C6.99596 15.7199 8.50828 16.0452 9.63341 16.0452C12.0885 16.0452 13.2859 14.7202 16.2858 14.4864C17.461 14.3946 18.6589 14.4819 19.8534 14.7448C20.0937 14.7981 20.3328 14.6536 20.3934 14.4156C20.4525 14.1858 20.3275 13.9291 20.0552 13.8608C18.8581 13.5866 17.5107 13.4817 16.2156 13.5826C12.6972 13.8565 11.5752 15.4739 8.78117 15.0763C0.825075 13.9204 3.01578 4.92721 9.05203 4.90137H15.6209C15.851 4.90041 16.047 5.05805 16.0727 5.28675C16.1943 6.36944 16.5027 7.38696 16.9592 8.27614C17.1164 8.58241 16.8908 8.94359 16.5465 8.93719C14.1746 8.89316 11.7265 9.1885 9.28719 9.88077C9.04636 9.94933 8.90697 10.2004 8.97497 10.4412C9.03163 10.6401 9.21352 10.7704 9.41072 10.7704C9.71648 10.7704 13.0416 9.53262 17.9363 9.91137C18.0453 9.91981 18.1488 9.96628 18.2255 10.0442C18.8013 10.6289 19.4674 11.0877 20.1957 11.3921C21.9719 12.1337 24.3941 12.0634 26.1271 11.1425C26.3034 11.0489 26.5209 11.0805 26.6612 11.2225C28.0785 12.6572 28.4798 15.0192 27.1518 16.5677C24.3975 19.8041 20.2862 15.0718 11.8813 17.9413C11.6433 18.0263 11.5186 18.2881 11.6065 18.5255L11.607 18.5266C11.692 18.7567 11.9448 18.8785 12.1765 18.7986C19.6449 16.2256 23.4216 20.0092 26.6929 18.1214C26.8939 18.0054 27.1526 18.063 27.2853 18.2534C28.8073 20.4368 28.6827 23.4184 27.2011 25.1495Z" fill="url(#paint1_linear_114_12049)"/>
<defs>
<linearGradient id="paint0_linear_114_12049" x1="27.3459" y1="10.9885" x2="13.488" y2="9.68663" gradientUnits="userSpaceOnUse">
<stop stop-color="#92A3FD"/>
<stop offset="1" stop-color="#9DCEFF"/>
</linearGradient>
<linearGradient id="paint1_linear_114_12049" x1="28.3709" y1="29.5998" x2="-4.60373" y2="27.0438" gradientUnits="userSpaceOnUse">
<stop stop-color="#92A3FD"/>
<stop offset="1" stop-color="#9DCEFF"/>
</linearGradient>
</defs>
</svg>
