<svg width="32" height="32" viewBox="0 0 32 32" fill="none" xmlns="http://www.w3.org/2000/svg">
<path d="M16.0026 18.6668C17.4754 18.6668 18.6693 17.4729 18.6693 16.0002C18.6693 14.5274 17.4754 13.3335 16.0026 13.3335C14.5298 13.3335 13.3359 14.5274 13.3359 16.0002C13.3359 17.4729 14.5298 18.6668 16.0026 18.6668Z" fill="white"/>
<path d="M5.33464 18.6668C6.80739 18.6668 8.0013 17.4729 8.0013 16.0002C8.0013 14.5274 6.80739 13.3335 5.33464 13.3335C3.86188 13.3335 2.66797 14.5274 2.66797 16.0002C2.66797 17.4729 3.86188 18.6668 5.33464 18.6668Z" fill="white"/>
<path d="M26.6667 18.6668C28.1394 18.6668 29.3333 17.4729 29.3333 16.0002C29.3333 14.5274 28.1394 13.3335 26.6667 13.3335C25.1939 13.3335 24 14.5274 24 16.0002C24 17.4729 25.1939 18.6668 26.6667 18.6668Z" fill="white"/>
</svg>
