<svg width="32" height="32" viewBox="0 0 32 32" fill="none" xmlns="http://www.w3.org/2000/svg">
<path d="M15.9999 2.3999C8.50086 2.3999 2.3999 8.50086 2.3999 15.9999C2.3999 23.4989 8.50086 29.5999 15.9999 29.5999C23.4989 29.5999 29.5999 23.4989 29.5999 15.9999C29.5999 8.50086 23.4989 2.3999 15.9999 2.3999ZM9.40596 18.0605C8.26974 18.0605 7.34536 17.1361 7.34536 15.9999C7.34536 14.8637 8.26974 13.9393 9.40596 13.9393C10.5422 13.9393 11.4666 14.8637 11.4666 15.9999C11.4666 17.1361 10.5422 18.0605 9.40596 18.0605ZM15.9999 18.0605C14.8637 18.0605 13.9393 17.1361 13.9393 15.9999C13.9393 14.8637 14.8637 13.9393 15.9999 13.9393C17.1361 13.9393 18.0605 14.8637 18.0605 15.9999C18.0605 17.1361 17.1361 18.0605 15.9999 18.0605ZM22.5938 18.0605C21.4576 18.0605 20.5332 17.1361 20.5332 15.9999C20.5332 14.8637 21.4576 13.9393 22.5938 13.9393C23.7301 13.9393 24.6544 14.8637 24.6544 15.9999C24.6544 17.1361 23.7301 18.0605 22.5938 18.0605Z" fill="url(#paint0_linear_114_12061)"/>
<defs>
<linearGradient id="paint0_linear_114_12061" x1="29.5999" y1="29.5999" x2="-6.65207" y2="26.7947" gradientUnits="userSpaceOnUse">
<stop stop-color="#92A3FD"/>
<stop offset="1" stop-color="#9DCEFF"/>
</linearGradient>
</defs>
</svg>
