<svg width="32" height="32" viewBox="0 0 32 32" fill="none" xmlns="http://www.w3.org/2000/svg">
<path d="M16 8.49658C10.2299 8.49658 5.16162 11.4872 2.25 16C5.16162 20.513 10.2299 23.5036 16 23.5036C21.7701 23.5036 26.8384 20.513 29.75 16C26.8384 11.4872 21.77 8.49658 16 8.49658ZM16 22.0036C14.8126 22.0036 13.6519 21.6515 12.6646 20.9918C11.6773 20.3322 10.9079 19.3946 10.4535 18.2976C9.99905 17.2006 9.88015 15.9935 10.1118 14.8289C10.3434 13.6644 10.9152 12.5946 11.7548 11.755C12.5944 10.9154 13.6641 10.3436 14.8287 10.1119C15.9932 9.88029 17.2003 9.99917 18.2973 10.4535C19.3943 10.9079 20.3319 11.6774 20.9916 12.6647C21.6513 13.6519 22.0034 14.8126 22.0034 16C22.0034 16.7884 21.8482 17.5691 21.5465 18.2975C21.2448 19.0258 20.8026 19.6877 20.2451 20.2452C19.6876 20.8026 19.0258 21.2449 18.2974 21.5466C17.5691 21.8483 16.7884 22.0036 16 22.0036Z" fill="url(#paint0_linear_114_12045)"/>
<path d="M15.6476 13.1359C15.6505 12.5596 15.81 11.9949 16.1089 11.5021C16.0724 11.5013 16.0368 11.4966 16.0001 11.4966C15.1094 11.4966 14.2387 11.7607 13.4981 12.2556C12.7575 12.7504 12.1803 13.4538 11.8394 14.2767C11.4985 15.0996 11.4093 16.0051 11.5831 16.8787C11.7569 17.7523 12.1858 18.5547 12.8156 19.1845C13.4455 19.8144 14.2479 20.2433 15.1215 20.417C15.9951 20.5908 16.9006 20.5016 17.7235 20.1608C18.5464 19.8199 19.2498 19.2427 19.7446 18.5021C20.2395 17.7615 20.5036 16.8908 20.5036 16.0001C20.5036 15.9635 20.4989 15.9278 20.4981 15.8915C20.0053 16.1903 19.4405 16.3497 18.8642 16.3526C18.0114 16.3517 17.1938 16.0125 16.5907 15.4094C15.9877 14.8064 15.6485 13.9888 15.6475 13.136L15.6476 13.1359Z" fill="url(#paint1_linear_114_12045)"/>
<defs>
<linearGradient id="paint0_linear_114_12045" x1="29.75" y1="23.5036" x2="-6.39452" y2="18.3783" gradientUnits="userSpaceOnUse">
<stop stop-color="#92A3FD"/>
<stop offset="1" stop-color="#9DCEFF"/>
</linearGradient>
<linearGradient id="paint1_linear_114_12045" x1="20.5036" y1="20.5036" x2="8.49911" y2="19.5747" gradientUnits="userSpaceOnUse">
<stop stop-color="#92A3FD"/>
<stop offset="1" stop-color="#9DCEFF"/>
</linearGradient>
</defs>
</svg>
