<svg width="32" height="32" viewBox="0 0 32 32" fill="none" xmlns="http://www.w3.org/2000/svg">
<path d="M15.2531 2.04518C8.51201 1.42182 6.91793 7.37654 7.16241 9.95002C7.31096 11.5132 7.72566 13.2243 9.95467 15.512C10.8696 16.4512 9.44893 18.2089 9.00677 18.6733L9.00648 18.6747C8.58889 20.0879 10.1729 20.5049 10.9442 20.0954C11.5886 19.7533 12.1398 19.4599 13.079 19.2172C13.5 19.1079 14.9363 18.6308 15.7444 17.0656C16.529 15.5458 16.0706 14.3748 15.5479 13.6601C14.6101 12.3779 13.0582 11.2762 10.8991 11.5779C10.9887 11.8117 11.2274 12.3839 11.3465 12.6082C11.7034 13.2862 12.2126 13.8879 12.7857 14.4346C13.368 14.9733 14.0335 15.4354 14.7407 15.8435C13.1923 15.3525 11.6993 14.4361 10.6835 13.0261C10.1652 12.3127 9.80845 11.4951 9.63793 10.63C9.46916 9.7538 9.50297 8.82179 9.77665 7.93776C10.0587 7.05633 10.5497 6.23963 11.2482 5.5972C11.9406 4.95506 12.8169 4.50509 13.7442 4.30829C14.6719 4.10368 15.645 4.15137 16.5492 4.40741C17.0012 4.53316 17.4368 4.71163 17.8471 4.93916C18.2635 5.16617 18.6509 5.44262 19.001 5.76251C19.703 6.398 20.2189 7.17511 20.6165 7.97273C20.9942 8.76581 21.2756 9.60126 21.4546 10.4613C21.8138 12.1527 21.8494 13.8694 21.6393 15.5493C21.5248 16.3885 21.3572 17.2223 21.0841 18.032C20.9526 18.4386 20.7931 18.8356 20.6067 19.2201C20.4261 19.6001 20.2339 19.9735 20.0148 20.3307C19.1565 21.7629 18.0477 23.0524 16.6954 23.9781C17.8078 22.7825 18.6713 21.4153 19.2938 19.9616C19.6024 19.2308 19.8674 18.4938 20.0177 17.7407C20.1764 16.9844 20.2625 16.2073 20.2963 15.4305C20.3593 13.8772 20.2275 12.3097 19.8515 10.8358C19.6643 10.0997 19.4152 9.38764 19.0796 8.73856C18.7505 8.0889 18.3364 7.49878 17.8315 7.04361C17.3451 6.58209 16.7215 6.2483 16.0689 6.04225C15.4181 5.83817 14.7287 5.78879 14.0555 5.89804C13.3902 6.01277 12.7507 6.28587 12.221 6.71503C11.6875 7.13349 11.2586 7.71986 10.9901 8.36345C10.8274 8.77209 10.7341 9.21338 10.6974 9.66479C10.7482 9.6486 10.7985 9.63126 10.8529 9.62202C13.268 9.21136 15.9666 10.3095 17.4174 12.2932C18.6831 14.024 18.8236 16.1507 17.8026 18.1283C16.5533 20.5468 14.3153 21.2893 13.6593 21.4589C12.9848 21.6337 9.71076 22.1323 8.51664 23.1455C7.54793 23.9674 7.09017 24.5029 7 26.553C7.28437 28.0607 8.18603 30.2958 11.0182 30.8249C14.2312 31.4251 16.627 28.2763 19.29 25.0346C21.9673 21.7762 23.7301 18.8473 23.9697 14.3557C24.3312 7.5719 21.5442 2.62692 15.2531 2.04518Z" fill="url(#paint0_linear_114_12042)"/>
<defs>
<linearGradient id="paint0_linear_114_12042" x1="24.0008" y1="30.899" x2="1.25372" y2="29.8635" gradientUnits="userSpaceOnUse">
<stop stop-color="#92A3FD"/>
<stop offset="1" stop-color="#9DCEFF"/>
</linearGradient>
</defs>
</svg>
