<svg width="32" height="32" viewBox="0 0 32 32" fill="none" xmlns="http://www.w3.org/2000/svg">
<path d="M8.51299 12.1613C8.42914 11.2004 8.55879 10.2329 8.89266 9.32797C8.50733 9.32797 8.04266 9.29114 7.58366 9.74447C7.3898 9.93822 7.25631 10.184 7.19937 10.4521C7.14243 10.7202 7.16448 10.9991 7.26284 11.2549C7.36121 11.5107 7.53168 11.7325 7.75357 11.8934C7.97547 12.0543 8.23927 12.1474 8.51299 12.1613ZM23.4078 9.32514H23.1018C23.436 10.23 23.5666 11.1974 23.4843 12.1585C23.8339 12.1419 24.1649 11.9966 24.4137 11.7505C24.6144 11.5525 24.7516 11.2991 24.8075 11.0227C24.8634 10.7463 24.8356 10.4595 24.7275 10.1991C24.6195 9.93859 24.4362 9.71628 24.2011 9.5606C23.966 9.40491 23.6898 9.32293 23.4078 9.32514ZM15.6757 4.60764C15.7288 4.66808 15.7941 4.71653 15.8674 4.74975C15.9407 4.78297 16.0202 4.8002 16.1007 4.80031C16.3261 4.80031 16.5423 4.88986 16.7017 5.04926C16.8611 5.20867 16.9507 5.42487 16.9507 5.65031C16.9507 5.87574 16.8611 6.09194 16.7017 6.25135C16.5423 6.41075 16.3261 6.50031 16.1007 6.50031C15.6254 6.49975 15.1623 6.34981 14.7769 6.07169C14.3915 5.79357 14.1033 5.40135 13.953 4.95047C10.3717 6.18864 8.24099 10.3338 9.34033 13.289C9.63939 13.1 9.98675 13.0016 10.3405 13.0056C10.5445 13.0056 10.5417 13.0056 11.7572 13.221C13.2293 13.4686 14.6579 13.9276 15.9987 14.5838C17.3412 13.9209 18.7728 13.4562 20.2487 13.204C21.5747 12.9773 21.5662 12.9688 21.7645 12.9688C22.0881 12.9668 22.4056 13.0572 22.6797 13.2295C24.0538 9.40447 20.124 4.25631 15.6757 4.60764ZM14.6472 9.76714C14.5599 10.0277 14.3936 10.2545 14.1713 10.416C13.949 10.5775 13.6819 10.6656 13.4072 10.6681C13.1324 10.6706 12.8637 10.5874 12.6386 10.4299C12.4134 10.2725 12.243 10.0487 12.151 9.78981C12.1258 9.71879 12.1299 9.64069 12.1623 9.57268C12.1947 9.50466 12.2528 9.45231 12.3238 9.42714C12.3948 9.40197 12.4729 9.40603 12.541 9.43844C12.609 9.47086 12.6613 9.52896 12.6865 9.59997C12.7393 9.74539 12.8357 9.87102 12.9624 9.9598C13.0891 10.0486 13.2401 10.0962 13.3948 10.0962C13.5496 10.0962 13.7005 10.0486 13.8273 9.9598C13.954 9.87102 14.0503 9.74539 14.1032 9.59997C14.1314 9.53501 14.1829 9.48298 14.2476 9.45413C14.3123 9.42527 14.3854 9.42169 14.4526 9.44409C14.5198 9.46649 14.5762 9.51324 14.6106 9.57513C14.645 9.63702 14.6551 9.70957 14.6387 9.77847L14.6472 9.76714ZM16.4067 12.4163C16.4067 12.4914 16.3768 12.5635 16.3237 12.6167C16.2705 12.6698 16.1985 12.6996 16.1233 12.6996C16.0482 12.6996 15.9761 12.6698 15.923 12.6167C15.8698 12.5635 15.84 12.4914 15.84 12.4163V11.9148C15.84 11.8397 15.8698 11.7676 15.923 11.7145C15.9761 11.6613 16.0482 11.6315 16.1233 11.6315C16.1985 11.6315 16.2705 11.6613 16.3237 11.7145C16.3768 11.7676 16.4067 11.8397 16.4067 11.9148V12.4163ZM19.9455 9.76714C19.8589 10.0287 19.6926 10.2565 19.47 10.4189C19.2474 10.5812 18.9796 10.6698 18.7041 10.6723C18.4286 10.6748 18.1592 10.591 17.9337 10.4328C17.7082 10.2745 17.5378 10.0497 17.4465 9.78981C17.4213 9.71879 17.4254 9.64069 17.4578 9.57268C17.4902 9.50466 17.5483 9.45231 17.6193 9.42714C17.6903 9.40197 17.7684 9.40603 17.8365 9.43844C17.9045 9.47086 17.9568 9.52896 17.982 9.59997C18.0348 9.74539 18.1312 9.87102 18.2579 9.9598C18.3846 10.0486 18.5356 10.0962 18.6903 10.0962C18.8451 10.0962 18.996 10.0486 19.1228 9.9598C19.2495 9.87102 19.3458 9.74539 19.3987 9.59997C19.4223 9.52858 19.4734 9.46952 19.5406 9.43578C19.6078 9.40204 19.6857 9.39638 19.7571 9.42006C19.8285 9.44373 19.8875 9.49479 19.9213 9.562C19.955 9.62922 19.9607 9.70709 19.937 9.77847L19.9455 9.76714ZM21.5548 13.5581C19.9427 13.8415 18.5685 14.0256 16.6277 14.9181C19.0456 16.2523 21.0627 18.2087 22.47 20.5848C22.6634 20.9104 22.8229 21.2551 22.946 21.6133V14.7311C22.946 14.5578 22.9082 14.3866 22.8351 14.2294C22.7621 14.0723 22.6556 13.933 22.5231 13.8212C22.3906 13.7095 22.2353 13.6281 22.068 13.5827C21.9008 13.5372 21.7256 13.5288 21.5548 13.5581ZM19.4978 29.1556C20.5413 28.6109 21.4398 27.8251 22.1187 26.8635C21.4338 27.8197 20.5368 28.6043 19.4978 29.1556ZM22.606 26.0871C22.7448 25.8236 22.6967 25.9115 22.5607 26.1665C22.5777 26.141 22.5918 26.1126 22.606 26.0871Z" fill="url(#paint0_linear_114_12053)"/>
<path d="M11.658 13.7679L10.5643 13.5809C10.3776 13.5484 10.1861 13.5575 10.0032 13.6074C9.8204 13.6572 9.65078 13.7467 9.5064 13.8695C9.36202 13.9922 9.24641 14.1452 9.16777 14.3177C9.08912 14.4901 9.04938 14.6777 9.05134 14.8672V21.9505C9.98139 21.5313 11.0312 21.4606 12.0091 21.7513C12.987 22.042 13.8276 22.6748 14.3775 23.5341C14.9275 24.3933 15.15 25.4218 15.0044 26.4315C14.8588 27.4412 14.3549 28.3649 13.5847 29.0339C19.0332 31.0824 24.7735 25.5857 21.994 20.8965C20.8909 19.0301 19.3952 17.4258 17.6104 16.1949C15.8257 14.9639 13.7946 14.1358 11.658 13.7679ZM16.1007 5.93369C16.1758 5.93369 16.2479 5.90384 16.301 5.8507C16.3542 5.79757 16.384 5.7255 16.384 5.65036C16.384 5.57521 16.3542 5.50315 16.301 5.45001C16.2479 5.39688 16.1758 5.36702 16.1007 5.36702C15.8001 5.36702 15.5118 5.24762 15.2993 5.03508C15.0867 4.82254 14.9673 4.53427 14.9673 4.23369C14.9673 3.93311 15.0867 3.64485 15.2993 3.4323C15.5118 3.21976 15.8001 3.10036 16.1007 3.10036C16.1758 3.10036 16.2479 3.07051 16.301 3.01737C16.3542 2.96424 16.384 2.89217 16.384 2.81702C16.384 2.74188 16.3542 2.66981 16.301 2.61668C16.2479 2.56354 16.1758 2.53369 16.1007 2.53369C15.6498 2.53369 15.2174 2.7128 14.8986 3.03161C14.5798 3.35042 14.4007 3.78282 14.4007 4.23369C14.4007 4.68456 14.5798 5.11696 14.8986 5.43577C15.2174 5.75458 15.6498 5.93369 16.1007 5.93369Z" fill="url(#paint1_linear_114_12053)"/>
<path d="M14.5112 25.7841C14.5137 24.9856 14.2567 24.208 13.7789 23.5683C13.3011 22.9286 12.6283 22.4614 11.862 22.2373C11.0957 22.0131 10.2772 22.044 9.52998 22.3254C8.78273 22.6067 8.14715 23.1233 7.71896 23.7972C7.29077 24.4711 7.09317 25.2659 7.15593 26.0619C7.21868 26.8579 7.53839 27.612 8.06689 28.2105C8.59539 28.809 9.30407 29.2195 10.0862 29.3803C10.8683 29.5411 11.6814 29.4434 12.4032 29.1019L12.4995 29.1557L12.406 29.1019C13.0356 28.8056 13.5678 28.3363 13.9406 27.7488C14.3134 27.1613 14.5113 26.4799 14.5112 25.7841ZM13.0718 26.8777H11.9385V28.0111H10.8987C10.6997 27.8326 10.5105 27.6434 10.332 27.4444H11.3492V26.3111H12.4825V25.2571H11.3492V24.1237H10.3122V25.2571H9.17885V26.3139H9.52735C9.54718 26.3422 9.56135 26.3734 9.58118 26.4017L9.53018 26.3139H10.3178V27.4076C10.1641 27.2338 10.0194 27.0522 9.88435 26.8636C10.0203 27.0562 10.1677 27.2376 10.3178 27.4302V27.4671H10.332C10.5048 27.6654 10.689 27.8524 10.8788 28.0337H9.74552V26.9004H8.61218V24.6904H9.74552V23.5571H11.9328V24.6904H13.0662L13.0718 26.8777Z" fill="url(#paint2_linear_114_12053)"/>
<defs>
<linearGradient id="paint0_linear_114_12053" x1="24.8356" y1="29.1556" x2="1.22109" y2="27.8414" gradientUnits="userSpaceOnUse">
<stop stop-color="#92A3FD"/>
<stop offset="1" stop-color="#9DCEFF"/>
</linearGradient>
<linearGradient id="paint1_linear_114_12053" x1="22.7182" y1="29.4747" x2="4.42213" y2="28.7565" gradientUnits="userSpaceOnUse">
<stop stop-color="#92A3FD"/>
<stop offset="1" stop-color="#9DCEFF"/>
</linearGradient>
<linearGradient id="paint2_linear_114_12053" x1="14.5112" y1="29.4558" x2="4.69295" y2="28.696" gradientUnits="userSpaceOnUse">
<stop stop-color="#92A3FD"/>
<stop offset="1" stop-color="#9DCEFF"/>
</linearGradient>
</defs>
</svg>
