<svg width="24" height="24" viewBox="0 0 24 24" fill="none" xmlns="http://www.w3.org/2000/svg">
<path d="M16.9036 20C16.6801 20.0001 16.46 19.9466 16.2624 19.844L12.5925 17.9514C12.564 17.9365 12.5323 17.9287 12.5 17.9287C12.4678 17.9287 12.436 17.9365 12.4076 17.9514L8.73827 19.844C8.51088 19.9614 8.25455 20.014 7.99826 19.9959C7.74198 19.9778 7.49598 19.8897 7.2881 19.7415C7.08022 19.5933 6.91876 19.391 6.82199 19.1574C6.72521 18.9239 6.69699 18.6684 6.74051 18.42L7.44117 14.4112C7.44655 14.3798 7.444 14.3476 7.43373 14.3173C7.42347 14.2871 7.4058 14.2598 7.38229 14.2379L4.41596 11.3973C4.23179 11.2212 4.10156 10.9981 4.04001 10.7531C3.97847 10.5081 3.98808 10.2512 4.06775 10.0113C4.14742 9.77142 4.29398 9.55824 4.4908 9.3959C4.68763 9.23356 4.92686 9.12855 5.18139 9.09277L9.28113 8.50871C9.31303 8.50415 9.34332 8.49204 9.36938 8.47342C9.39544 8.4548 9.41648 8.43022 9.43068 8.40183L11.2636 4.75357C11.3771 4.52741 11.5529 4.33695 11.7711 4.20377C11.9892 4.07059 12.241 4 12.498 4C12.7549 4 13.0067 4.07059 13.2249 4.20377C13.4431 4.33695 13.6189 4.52741 13.7324 4.75357L15.5665 8.40067C15.5808 8.42898 15.6019 8.45348 15.6279 8.47208C15.6539 8.49069 15.6842 8.50286 15.716 8.50755L19.8193 9.0922C20.0737 9.12818 20.3128 9.23329 20.5094 9.39566C20.7061 9.55803 20.8526 9.77116 20.9322 10.0109C21.0119 10.2507 21.0215 10.5076 20.9601 10.7525C20.8987 10.9974 20.7687 11.2205 20.5847 11.3967L17.6154 14.2356C17.592 14.2576 17.5744 14.2849 17.5641 14.3151C17.5539 14.3453 17.5513 14.3775 17.5566 14.4089L18.2572 18.4176C18.2909 18.6113 18.2812 18.8099 18.2288 18.9996C18.1763 19.1892 18.0823 19.3653 17.9535 19.5157C17.8246 19.6661 17.6638 19.7871 17.4824 19.8704C17.301 19.9536 17.1033 19.9971 16.903 19.9977L16.9036 20Z" fill="#F8CD14"/>
</svg>
