<svg width="24" height="24" viewBox="0 0 24 24" fill="none" xmlns="http://www.w3.org/2000/svg">
<path d="M21.8341 10.2806C22.1271 10.1234 22.3719 9.88939 22.5422 9.60371C22.7125 9.31803 22.8019 8.9914 22.8008 8.65882V6.84527C22.8002 6.35605 22.6056 5.88702 22.2597 5.54109C21.9137 5.19515 21.4447 5.00056 20.9555 5H3.84529C3.35606 5.00056 2.88704 5.19515 2.5411 5.54109C2.19517 5.88702 2.00058 6.35605 2.00002 6.84527V8.65741C1.99889 8.98999 2.08826 9.31661 2.25855 9.6023C2.42884 9.88798 2.67364 10.122 2.96672 10.2792C3.28304 10.4485 3.54748 10.7006 3.73183 11.0084C3.91619 11.3162 4.01355 11.6683 4.01355 12.0271C4.01355 12.3859 3.91619 12.738 3.73183 13.0459C3.54748 13.3537 3.28304 13.6057 2.96672 13.7751C2.67343 13.9324 2.42849 14.1666 2.25819 14.4526C2.08788 14.7385 1.99863 15.0654 2.00002 15.3983V17.2104C2.00058 17.6996 2.19517 18.1686 2.5411 18.5146C2.88704 18.8605 3.35606 19.0551 3.84529 19.0557H20.9555C21.4447 19.0551 21.9137 18.8605 22.2597 18.5146C22.6056 18.1686 22.8002 17.6996 22.8008 17.2104V15.3983C22.8019 15.0657 22.7125 14.7391 22.5422 14.4534C22.3719 14.1677 22.1271 13.9337 21.8341 13.7765C20.4492 13.0834 20.4598 10.9737 21.8341 10.2806Z" fill="#F8CD14"/>
<path d="M16.856 12.5348C14.7336 12.5856 14.7301 15.6965 16.8518 15.7529C18.9742 15.7015 18.977 12.5919 16.856 12.5348ZM16.3025 14.146C16.3032 13.424 17.4011 13.4211 17.4053 14.1432C17.4025 14.8631 16.3081 14.8659 16.3025 14.146ZM12.6246 11.5209C14.7463 11.4673 14.7463 8.35632 12.6246 8.30273C10.5023 8.35703 10.5037 11.4659 12.6246 11.5209ZM12.6246 9.36111C13.346 9.36393 13.346 10.4611 12.6246 10.4639C11.9033 10.4604 11.904 9.36534 12.6246 9.36111ZM18.1739 8.59959C18.0745 8.50002 17.9397 8.44395 17.799 8.44369C17.6584 8.44342 17.5234 8.49898 17.4236 8.59818L11.2962 14.6967C11.2456 14.7453 11.2052 14.8036 11.1773 14.8681C11.1495 14.9325 11.1347 15.0019 11.134 15.0721C11.1332 15.1423 11.1464 15.2119 11.1728 15.277C11.1993 15.342 11.2384 15.4012 11.2879 15.4509C11.3375 15.5007 11.3964 15.5401 11.4613 15.5668C11.5263 15.5936 11.5959 15.6071 11.6661 15.6067C11.7363 15.6062 11.8057 15.5918 11.8703 15.5643C11.9349 15.5367 11.9933 15.4966 12.0422 15.4462L18.1703 9.34841C18.2198 9.29952 18.2592 9.24135 18.2861 9.17723C18.3131 9.1131 18.3271 9.04429 18.3275 8.97473C18.3278 8.90517 18.3144 8.83623 18.288 8.77186C18.2617 8.70748 18.2229 8.64894 18.1739 8.59959ZM8.06399 8.88092C7.92373 8.88092 7.78922 8.93664 7.69005 9.03582C7.59087 9.13499 7.53516 9.2695 7.53516 9.40976V10.7657C7.53516 10.9059 7.59087 11.0405 7.69005 11.1396C7.78922 11.2388 7.92373 11.2945 8.06399 11.2945C8.20424 11.2945 8.33875 11.2388 8.43793 11.1396C8.53711 11.0405 8.59282 10.9059 8.59282 10.7657V9.40976C8.59282 9.2695 8.53711 9.13499 8.43793 9.03582C8.33875 8.93664 8.20424 8.88092 8.06399 8.88092ZM8.06399 12.7619C7.92373 12.7619 7.78922 12.8176 7.69005 12.9167C7.59087 13.0159 7.53516 13.1504 7.53516 13.2907V14.6459C7.53516 14.7862 7.59087 14.9207 7.69005 15.0198C7.78922 15.119 7.92373 15.1747 8.06399 15.1747C8.20424 15.1747 8.33875 15.119 8.43793 15.0198C8.53711 14.9207 8.59282 14.7862 8.59282 14.6459V13.2907C8.59282 13.1504 8.53711 13.0159 8.43793 12.9167C8.33875 12.8176 8.20424 12.7619 8.06399 12.7619Z" fill="white"/>
<path d="M7.69005 7.2587C7.59087 7.15953 7.53516 7.02502 7.53516 6.88476V6H8.59282V6.88476C8.59282 7.02502 8.53711 7.15953 8.43793 7.2587C8.33875 7.35788 8.20424 7.41359 8.06399 7.41359C7.92373 7.41359 7.78922 7.35788 7.69005 7.2587Z" fill="white"/>
<path d="M7.69005 16.7413C7.59087 16.8405 7.53516 16.975 7.53516 17.1152V18H8.59282V17.1152C8.59282 16.975 8.53711 16.8405 8.43793 16.7413C8.33875 16.6421 8.20424 16.5864 8.06399 16.5864C7.92373 16.5864 7.78922 16.6421 7.69005 16.7413Z" fill="white"/>
</svg>
